<?xml version="1.0" encoding="UTF-8"?>
<!DOCTYPE svg PUBLIC "-//W3C//DTD SVG 1.1//EN" "http://www.w3.org/Graphics/SVG/1.1/DTD/svg11.dtd">
<!-- Creator: CorelDRAW 2018 (64-Bit) -->
<svg xmlns="http://www.w3.org/2000/svg" xml:space="preserve" width="5.33557in" height="1.78031in" version="1.1" style="shape-rendering:geometricPrecision; text-rendering:geometricPrecision; image-rendering:optimizeQuality; fill-rule:evenodd; clip-rule:evenodd"
viewBox="0 0 517134 172551"
 xmlns:xlink="http://www.w3.org/1999/xlink">
 <defs>
  <style type="text/css">
   <![CDATA[
    .fil1 {fill:#005256}
    .fil2 {fill:#2CD3DA}
    .fil3 {fill:#FCFCFC}
    .fil0 {fill:#FD4500}
    .fil4 {fill:#005256;fill-rule:nonzero}
    .fil5 {fill:#FD4500;fill-rule:nonzero}
   ]]>
  </style>
 </defs>
 <g id="Layer_x0020_1">
  <metadata id="CorelCorpID_0Corel-Layer"/>
  <path class="fil0" d="M280534 128958l52196 -35200c9253,-6217 8686,1034 20512,-8755 5606,-4641 9549,-9666 15171,-14115 6648,-5263 27201,-24363 35025,-23831 3674,250 7950,3176 11151,4392 10405,3951 8605,-4237 15072,4075 3849,4946 6531,5573 11313,8640 6229,-8573 13170,-17589 28868,-13487 -7520,7469 -16936,14344 -23833,21881 15198,-2920 26578,2692 30095,14480l-7258 -1492c3163,3238 7363,4939 11194,7444 4520,2956 6101,4986 10394,7742 4994,3205 20296,8837 26373,10302 -1661,-19737 -6412,-35522 -15211,-50688 -7019,-12099 -4382,-10755 -20518,-12701 -7234,-872 -23931,-2116 -29449,-4029l36616 -1531c-4260,-7866 -21230,-20829 -31563,-26700 -13101,-7444 -27983,-12643 -44927,-14598 -18394,-2123 -34986,160 -51462,5426 -8597,2747 -35621,15774 -37078,21367l47665 1903c-7771,66 -20144,1518 -28518,2096 -8077,558 -23944,-692 -28927,3529 -5869,4973 -21311,26916 -24869,38327l51642 1926c-3752,2389 -22875,4564 -27548,5316l-26017 4360c-7744,2750 -9072,39440 -6108,43919z"/>
  <path class="fil1" d="M280534 128958l160561 328 1703 -11231c645,-11932 579,-28729 -4996,-38354 -8486,3541 -21095,17337 -28819,20413 597,-15559 8755,-21874 22761,-24556 -8290,-4419 -26123,-5296 -33351,-9997 8362,-8256 23762,-8488 33539,-199 3321,2816 3812,4750 7060,7800l1982 -8997c-4782,-3067 -7464,-3694 -11313,-8640 -6467,-8312 -4668,-124 -15072,-4075 -3202,-1216 -7477,-4142 -11151,-4392 -7824,-532 -28377,18568 -35025,23831 -5622,4450 -9565,9474 -15171,14115 -11826,9789 -11259,2538 -20512,8755l-52196 35200z"/>
  <path class="fil2" d="M359410 169052c2910,854 5167,1516 8080,2257 625,159 3792,960 4162,995 6387,604 3323,56 4845,-1140l-3330 -395c888,-1868 -1486,-2212 8486,-3946 14582,-2536 65637,-7040 70812,-15445 -2520,-2997 -3488,-2025 -6395,-3920 6744,-3379 21124,-4967 29907,-6268 3984,-590 28455,-3142 31947,-5109l-219834 -163c1383,1043 -53,500 2391,1174 5283,1456 12601,1104 20922,4424 -2343,3777 -2227,-345 -3264,3163 15185,4837 40604,3284 57344,7298 -2112,8139 -9968,5372 -11385,13817 2055,2136 2366,1615 5312,3259z"/>
  <path class="fil1" d="M517134 129313l-328 -18278c-6077,-1465 -21379,-7097 -26373,-10302 -4294,-2756 -5874,-4785 -10394,-7742 -3831,-2505 -8030,-4206 -11194,-7444l-24999 -7170c7309,18467 9569,28481 9035,50893l64252 42z"/>
  <path class="fil3" d="M440974 64165l-1982 8997c-3249,-3049 -3739,-4983 -7060,-7800 -9777,-8288 -25177,-8057 -33539,199 7229,4701 25061,5579 33351,9997 -14006,2682 -22164,8997 -22761,24556 7724,-3076 20333,-16872 28819,-20413 5575,9625 5641,26422 4996,38354 2298,2494 -702,-732 255,2240l1972 3783c250,378 500,762 848,1044l-1350 -12081c4102,4711 1230,14272 -659,16125 275,145 797,-178 924,129 115,278 701,89 841,76 3040,-287 3908,-1601 1263,-1047 297,68 651,47 805,432 1711,4279 46526,2424 51690,2424 4377,0 14589,1498 17746,-1867l-64252 -42c533,-22412 -1727,-32426 -9035,-50893l24999 7170 7258 1492c-3517,-11788 -14896,-17401 -30095,-14480 6897,-7537 16313,-14413 23833,-21881 -15699,-4102 -22639,4914 -28868,13487z"/>
  <path class="fil4" d="M4843 100027l17433 0c664,0 1203,182 1606,554 411,372 617,855 617,1440 0,570 -206,1044 -625,1424 -419,380 -949,570 -1598,570l-13445 0 0 9401 5658 0c649,0 1171,182 1575,554 403,372 601,855 601,1440 0,585 -198,1068 -601,1440 -404,372 -926,554 -1575,554l-5658 0 0 9401 13445 0c664,0 1203,182 1606,554 411,372 617,855 617,1440 0,585 -206,1068 -625,1440 -419,372 -949,554 -1598,554l-17433 0 0 -30766zm34921 8356l8428 0c1305,0 2492,404 3569,1203 1076,807 1614,1622 1614,2453 0,562 -198,1029 -594,1416 -395,388 -862,578 -1408,578 -491,0 -1021,-277 -1590,-831 -562,-554 -1108,-831 -1638,-831l-8380 0c-340,0 -617,111 -831,333 -214,229 -325,530 -325,918 0,166 71,348 206,530 142,182 308,325 514,412l10762 4598c1147,506 2050,1258 2714,2255 665,997 997,2113 997,3355 0,1647 -594,3071 -1789,4250 -1186,1179 -2595,1772 -4233,1772l-7826 0c-1393,0 -2706,-404 -3925,-1218 -1226,-807 -1836,-1622 -1836,-2437 0,-530 190,-989 570,-1393 380,-404 839,-601 1377,-601 435,0 1029,277 1765,830 744,554 1424,831 2049,831l7826 0c538,0 1013,-198 1417,-601 411,-404 617,-879 617,-1433 0,-419 -118,-799 -348,-1147 -230,-348 -546,-601 -950,-751l-10698 -4661c-989,-419 -1765,-1053 -2343,-1899 -570,-855 -854,-1780 -854,-2786 0,-1424 498,-2635 1503,-3640 1005,-1005 2223,-1503 3640,-1503zm27767 -6125l0 15581 10295 -8879c293,-229 546,-395 776,-482 221,-95 459,-143 704,-143 538,0 997,190 1377,578 380,387 570,847 570,1369 0,293 -71,586 -206,870 -142,285 -340,554 -609,799l-7874 6837 9781 8341c293,245 506,506 649,767 135,261 206,546 206,854 0,562 -182,1029 -554,1416 -372,388 -823,578 -1345,578 -293,0 -570,-47 -823,-135 -253,-95 -506,-245 -752,-443l-10247 -8760 -1946 1646 0 5516c0,665 -182,1203 -554,1606 -372,412 -855,617 -1440,617 -585,0 -1068,-206 -1440,-625 -372,-419 -554,-949 -554,-1598l0 -26311c0,-680 182,-1226 546,-1630 364,-403 847,-601 1448,-601 570,0 1045,206 1424,625 380,419 570,949 570,1606zm31249 18469c-491,0 -934,190 -1322,578 -388,387 -578,847 -578,1369l0 2231c0,506 190,950 570,1329 380,380 839,570 1377,570l5310 0 4289 -2414 -47 -1765c0,-538 -190,-989 -578,-1353 -388,-364 -838,-546 -1361,-546l-7660 0zm237 -12345l7074 0c1607,0 2984,554 4123,1670 1147,1108 1749,2516 1812,4218l522 14251 0 95c0,617 -190,1131 -570,1551 -380,420 -839,625 -1377,625 -554,0 -1013,-174 -1369,-522 -356,-348 -578,-839 -673,-1472l-2310 1464c-245,150 -538,277 -871,380 -332,103 -625,150 -886,150l-5666 0c-1638,0 -3038,-578 -4194,-1725 -1163,-1155 -1740,-2541 -1740,-4163l0 -2231c0,-1622 585,-3015 1764,-4186 1171,-1163 2564,-1748 4170,-1748l7613 0c325,0 625,23 910,79 285,55 562,135 823,245l-134 -2793c-32,-578 -222,-1029 -578,-1377 -356,-348 -815,-523 -1369,-523l-7074 0c-664,0 -1187,-174 -1567,-530 -380,-356 -570,-847 -570,-1464 0,-586 198,-1068 593,-1440 396,-372 910,-554 1543,-554zm27213 2248l0 1234 2318 -1582 143 -87c1701,-1210 3300,-1812 4803,-1812l1804 0c2026,0 3545,609 4550,1828 1005,1226 1543,3093 1622,5610l427 12748 0 95c0,617 -190,1124 -570,1528 -380,403 -855,601 -1424,601 -585,0 -1060,-198 -1416,-593 -356,-388 -546,-934 -578,-1630l-475 -12883c-47,-1116 -277,-1938 -680,-2469 -412,-530 -1021,-799 -1828,-799l-1298 0c-712,0 -1590,340 -2643,1021l-142 95 -4613 3031 0 12004c0,665 -182,1203 -554,1606 -372,412 -855,617 -1440,617 -585,0 -1068,-206 -1440,-625 -372,-419 -554,-949 -554,-1598l0 -17939c0,-681 182,-1226 546,-1630 364,-412 847,-617 1448,-617 570,0 1045,206 1424,625 380,420 570,957 570,1622zm44020 -8372l0 15581 10295 -8879c293,-229 546,-395 775,-482 222,-95 459,-143 704,-143 538,0 997,190 1377,578 380,387 570,847 570,1369 0,293 -71,586 -206,870 -143,285 -340,554 -610,799l-7873 6837 9780 8341c293,245 506,506 649,767 134,261 206,546 206,854 0,562 -182,1029 -554,1416 -372,388 -823,578 -1345,578 -293,0 -570,-47 -823,-135 -253,-95 -506,-245 -752,-443l-10248 -8760 -1946 1646 0 5516c0,665 -182,1203 -554,1606 -372,412 -855,617 -1440,617 -586,0 -1068,-206 -1440,-625 -372,-419 -554,-949 -554,-1598l0 -26311c0,-680 182,-1226 546,-1630 364,-403 847,-601 1448,-601 570,0 1045,206 1424,625 380,419 570,949 570,1606zm29532 6125l5428 0c665,0 1203,182 1606,554 412,372 617,854 617,1440l0 16428 3664 0c649,0 1171,182 1575,546 403,364 601,847 601,1448 0,585 -206,1068 -617,1440 -403,372 -926,554 -1558,554l-11315 0c-665,0 -1203,-182 -1607,-554 -412,-372 -617,-855 -617,-1440 0,-585 206,-1068 625,-1440 419,-372 950,-554 1599,-554l3615 0 0 -14434 -3615 0c-681,0 -1219,-182 -1622,-545 -404,-365 -602,-847 -602,-1448 0,-570 206,-1044 625,-1424 419,-380 950,-570 1599,-570zm3893 -10018l1947 0c451,0 862,198 1242,601 380,404 570,863 570,1392l0 1662c0,578 -206,1053 -625,1424 -420,380 -950,570 -1598,570l-1535 0c-680,0 -1218,-182 -1622,-546 -404,-364 -601,-847 -601,-1448l0 -1662c0,-593 206,-1068 617,-1440 403,-372 941,-554 1606,-554zm26857 10018l8428 0c1305,0 2492,404 3569,1203 1076,807 1614,1622 1614,2453 0,562 -198,1029 -594,1416 -395,388 -862,578 -1408,578 -491,0 -1021,-277 -1590,-831 -562,-554 -1108,-831 -1638,-831l-8380 0c-340,0 -617,111 -831,333 -214,229 -325,530 -325,918 0,166 71,348 206,530 142,182 308,325 514,412l10762 4598c1147,506 2049,1258 2714,2255 665,997 997,2113 997,3355 0,1647 -594,3071 -1789,4250 -1186,1179 -2595,1772 -4233,1772l-7826 0c-1393,0 -2707,-404 -3925,-1218 -1226,-807 -1836,-1622 -1836,-2437 0,-530 190,-989 570,-1393 380,-404 839,-601 1377,-601 435,0 1029,277 1764,830 744,554 1424,831 2050,831l7826 0c538,0 1013,-198 1416,-601 412,-404 617,-879 617,-1433 0,-419 -118,-799 -348,-1147 -230,-348 -546,-601 -950,-751l-10698 -4661c-989,-419 -1765,-1053 -2343,-1899 -570,-855 -855,-1780 -855,-2786 0,-1424 499,-2635 1503,-3640 1005,-1005 2223,-1503 3640,-1503zm27767 -6125l0 9416 2896 -1899c63,-48 142,-103 237,-166 1203,-815 2398,-1226 3569,-1226l2509 0c1622,0 3000,554 4139,1670 1131,1115 1733,2516 1796,4218l475 14251 0 95c0,617 -182,1131 -554,1551 -372,420 -823,625 -1345,625 -602,0 -1092,-190 -1472,-578 -379,-388 -585,-902 -617,-1551l-474 -14394c-32,-554 -229,-1013 -594,-1369 -364,-356 -815,-531 -1353,-531l-2555 0c-230,0 -444,40 -633,119 -198,71 -459,229 -800,459l-5222 3522 0 12099c0,665 -182,1203 -554,1606 -372,412 -855,617 -1440,617 -585,0 -1068,-206 -1440,-625 -372,-419 -554,-949 -554,-1598l0 -26311c0,-680 182,-1226 546,-1630 364,-403 847,-601 1448,-601 570,0 1045,206 1424,625 380,419 570,949 570,1606z"/>
  <path class="fil5" d="M60492 75590c381,843 939,1524 1673,2027 748,504 1605,762 2557,762l0 7890c-1387,0 -2802,-218 -4271,-639 -1455,-422 -2639,-1089 -3537,-1987 -911,898 -1972,1565 -3197,1987 -1224,422 -2435,639 -3659,639 -1170,0 -2340,-231 -3510,-680 -1170,-448 -2258,-1102 -3265,-1945 -2027,1755 -4311,2626 -6856,2626 -1388,0 -2680,-285 -3864,-843 -1197,-558 -2326,-1360 -3387,-2422 -1605,1224 -3455,2122 -5591,2707 -2122,585 -4326,871 -6611,871 -2177,0 -4285,-272 -6339,-830 -2040,-557 -3850,-1401 -5414,-2516 -1564,-1116 -2829,-2517 -3795,-4217 -952,-1700 -1428,-3673 -1428,-5904 0,-1700 258,-3387 762,-5061 503,-1672 1184,-3305 2027,-4896l6938 3740c-585,1007 -1034,2054 -1361,3115 -313,1061 -476,2095 -476,3102 0,911 258,1714 762,2435 503,721 1183,1320 2027,1795 857,476 1823,817 2911,1034 1088,204 2217,313 3387,313 2653,0 4802,-462 6421,-1388 1619,-938 2530,-2163 2748,-3713l0 -11712 7889 0 0 12270c0,1387 245,2448 721,3196 476,735 1089,1116 1837,1116 530,0 1061,-272 1592,-802 530,-531 925,-1306 1197,-2313l68 0c-41,-204 -68,-422 -68,-639l0 -12828 7890 0 0 12270c0,1387 285,2435 870,3155 585,721 1252,1075 1999,1075 626,0 1197,-313 1714,-912 503,-612 748,-1714 748,-3319l0 -12270 7890 0 0 12991c0,272 0,504 0,721zm-16337 -16582l0 -7495 7971 0 0 7495 -7971 0zm-4775 -8842l0 -7495 7890 0 0 7495 -7890 0zm-4870 8842l0 -7495 7971 0 0 7495 -7971 0zm48698 27260c-1224,0 -2448,-218 -3659,-639 -1224,-422 -2340,-1089 -3360,-1987l-68 69c-1020,911 -2136,1550 -3346,1918 -1075,422 -2190,639 -3360,639l-5020 0 0 -7890 4952 0c625,0 1170,-218 1592,-639 585,-476 1033,-1279 1346,-2394l0 -9400 7890 0 0 8203c0,1442 353,2530 1047,3278 204,313 517,557 912,707 395,163 762,245 1075,245l0 7890zm-639 10515l-7890 0 0 -7482 7890 0 0 7482zm-9645 0l-7889 0 0 -7482 7889 0 0 7482zm9971 -18404l21914 0 -13861 -7658c-2285,-1211 -3931,-2558 -4938,-4027 -1020,-1455 -1523,-2951 -1523,-4502 0,-1796 598,-3428 1796,-4897 1197,-1456 2802,-2707 4829,-3741 2013,-1034 4339,-1850 6965,-2435 2639,-585 5359,-871 8175,-871 2394,0 4720,232 6978,708 2257,476 4285,1251 6094,2312l-3904 6856c-1278,-748 -2693,-1278 -4271,-1591 -1564,-327 -3196,-476 -4896,-476 -1388,0 -2789,109 -4231,313 -1428,218 -2775,503 -4012,885 -1252,367 -2367,789 -3360,1265 -980,490 -1714,1047 -2190,1673 0,272 775,830 2313,1673l25982 14351 0 8053 -37857 0 0 -7890zm63376 -11957c-585,1061 -1033,2122 -1360,3184 -313,1061 -476,2081 -476,3033 0,1007 259,1864 762,2557 503,680 1183,1252 2027,1701 857,462 1823,802 2911,1047 1089,231 2217,354 3387,354 1279,0 2476,-122 3591,-354 1115,-245 2082,-599 2911,-1075 816,-490 1456,-1089 1904,-1796 449,-721 680,-1564 680,-2517 0,-952 -149,-1945 -435,-2992 -299,-1034 -707,-2082 -1237,-3143l6856 -3672c843,1550 1524,3169 2027,4870 503,1700 762,3374 762,5019 0,2122 -435,4026 -1320,5700 -870,1673 -2081,3088 -3618,4231 -1551,1129 -3346,2027 -5428,2666 -2067,640 -4298,952 -6693,952 -2177,0 -4285,-286 -6339,-870 -2040,-585 -3849,-1428 -5414,-2517 -1564,-1088 -2830,-2489 -3795,-4189 -952,-1700 -1428,-3686 -1428,-5972 0,-1646 258,-3319 761,-5019 504,-1700 1184,-3319 2027,-4870l6937 3672zm3265 -1360l0 -7482 7972 0 0 7482 -7972 0zm31572 -18650l0 27342c0,1279 449,2367 1347,3265 911,911 1999,1360 3278,1360l952 0 0 7890 -952 0c-1755,0 -3387,-326 -4911,-993 -1510,-666 -2830,-1578 -3945,-2707 -1115,-1143 -1999,-2462 -2666,-3959 -667,-1483 -993,-3102 -993,-4856l0 -27342 7890 0zm37693 13711c-1279,-748 -2693,-1278 -4271,-1591 -1564,-327 -3196,-476 -4896,-476 -1388,0 -2789,109 -4231,313 -1428,218 -2775,503 -4012,885 -1252,367 -2367,789 -3360,1265 -980,490 -1714,1047 -2190,1673 0,272 775,830 2312,1673l26308 14514 3184 0 0 7890 -41367 0 0 -7890 21914 0 -13861 -7658c-2285,-1211 -3932,-2558 -4938,-4027 -1020,-1455 -1523,-2951 -1523,-4502 0,-1796 598,-3428 1796,-4897 1197,-1456 2802,-2707 4829,-3741 2013,-1034 4339,-1850 6965,-2435 2639,-585 5359,-871 8175,-871 2394,0 4720,232 6978,708 2258,476 4285,1251 6094,2312l-3904 6856zm15385 23519c-911,898 -2095,1565 -3550,1987 -1469,422 -2884,639 -4271,639l0 -7890c1387,0 2407,-395 3074,-1197 667,-802 993,-1809 993,-3033l0 -12270 7972 0 0 12270c0,1387 244,2448 720,3196 476,735 1089,1116 1837,1116 585,0 1184,-367 1823,-1075 639,-721 965,-1796 965,-3237l0 -12270 7890 0 0 12270c0,1387 286,2435 871,3155 585,721 1252,1075 2000,1075 585,0 1142,-313 1673,-912 530,-612 789,-1714 789,-3319l0 -12270 7890 0 0 12270c0,2081 -286,3863 -871,5346 -585,1483 -1374,2734 -2353,3741 -980,1020 -2095,1768 -3347,2272 -1251,503 -2544,762 -3863,762 -1224,0 -2422,-245 -3591,-721 -1170,-476 -2231,-1115 -3183,-1904 -2082,1755 -4394,2626 -6938,2626 -1116,0 -2258,-231 -3428,-680 -1170,-448 -2204,-1102 -3102,-1945zm41285 -37231l0 39856 -7890 0 0 -39856 7890 0z"/>
 </g>
</svg>
